<?xml version="1.0" encoding="iso-8859-1"?>
<svg fill="#000000" height="800px" width="800px" version="1.1" id="Layer_1" xmlns="http://www.w3.org/2000/svg" xmlns:xlink="http://www.w3.org/1999/xlink" 
	 viewBox="0 0 472.615 472.615" xml:space="preserve">
<g>
	<g>
		<path d="M471.197,70.93c-0.284-0.378-0.474-0.757-0.756-1.039c-2.648-3.215-6.996-4.255-10.778-2.741L6.088,239.77
			c-3.97,1.511-6.428,5.389-6.049,9.64c0.284,4.161,3.403,7.657,7.562,8.415l124.029,24.106l26.565,116.184l0.094,0.663
			c0.189,0.754,0.378,1.417,0.756,2.077c0.189,0.379,0.473,0.852,0.756,1.231c0.378,0.567,0.851,1.041,1.229,1.511
			c1.229,1.135,2.741,1.985,4.348,2.271c0.19,0.093,0.473,0.187,0.663,0.187c0.473,0,1.04,0.095,1.512,0.095
			c0.662,0,1.229-0.095,1.89-0.189c0.284-0.093,0.567-0.093,0.945-0.282c0.095,0,0.189,0,0.284-0.096
			c0.567-0.189,1.04-0.376,1.513-0.661h0.095c0.188-0.189,0.473-0.284,0.661-0.473l130.079-91.414l73.548,13.896
			c0.567,0.095,1.23,0.095,1.797,0.095c3.97,0,7.562-2.458,8.886-6.239l84.797-241.538c0.189-0.471,0.284-0.944,0.378-1.417
			c0.189-0.661,0.189-1.417,0.189-2.08C472.615,74.05,472.143,72.347,471.197,70.93z M224.085,282.783
			c-0.567,0.471-1.134,1.133-1.419,1.796c-0.188,0.095-0.283,0.189-0.377,0.378l-50.86,86.404l-21.175-92.928l235.012-143.786
			L224.085,282.783z"/>
	</g>
</g>
</svg>